<svg id="garbage" enable-background="new 0 0 300 300" height="512" viewBox="0 0 300 300" width="512" xmlns="http://www.w3.org/2000/svg"><g><path d="m256 103.299h-16-4v-16c0-2.209-1.789-4-4-4h-24v-12c0-2.209-1.789-4-4-4h-60c-2.211 0-4 1.791-4 4v12h-24c-2.211 0-4 1.791-4 4v16h-4-16c-2.211 0-4 1.791-4 4s1.789 4 4 4h12.144l5.391 148.144c.078 2.152 1.844 3.856 3.996 3.856h120.938c2.152 0 3.918-1.703 3.996-3.856l5.391-148.144h12.144c2.211 0 4-1.791 4-4s-1.789-4-4-4zm-28 0h-12.678l.178-11.942c0-.02-.011-.038-.011-.058h12.511zm-87.32 0-.179-12h3.499 60 3.499l-.179 12zm66.521 8-2.143 144h-62.117l-2.143-144zm-59.201-36h52v8h-52zm-28 16h12.511c0 .021-.011.038-.011.058l.178 11.942h-12.678zm-7.852 20h20.648l2.143 144h-17.553zm118.465 144h-17.553l2.143-144h20.648z"/><path d="m111.767 42.102c1.238-1.228 1.247-3.227.019-4.466s-3.227-1.248-4.466-.02-1.248 3.227-.02 4.466 3.227 1.248 4.467.02z"/><path d="m125.084 60.025c1.228 1.239 3.227 1.248 4.466.02s1.248-3.227.02-4.466-3.227-1.248-4.466-.02-1.248 3.227-.02 4.466z"/><path d="m113.89 66.674c-1.238 1.228-1.247 3.227-.02 4.466 1.228 1.238 3.227 1.248 4.466.02 1.238-1.228 1.248-3.227.02-4.466-1.228-1.238-3.228-1.247-4.466-.02z"/><path d="m140.765 48.93c1.239-1.228 1.248-3.227.02-4.466s-3.228-1.248-4.466-.02-1.248 3.227-.02 4.466 3.227 1.248 4.466.02z"/><path d="m125.144 46.628c1.239-1.228 1.248-3.227.02-4.466s-3.228-1.248-4.466-.02-1.248 3.227-.02 4.466c1.228 1.238 3.227 1.247 4.466.02z"/><path d="m111.707 55.5c1.227 1.239 3.227 1.248 4.465.02 1.239-1.228 1.248-3.227.02-4.466s-3.228-1.248-4.466-.02-1.248 3.227-.019 4.466z"/><path d="m168.052 50.243c2.362 0 4.276-1.915 4.276-4.276 0-2.362-1.914-4.277-4.276-4.277s-4.276 1.915-4.276 4.277c-.001 2.361 1.914 4.276 4.276 4.276z"/><path d="m60 75.299c2.211 0 4-1.791 4-4v-8c0-2.209-1.789-4-4-4s-4 1.791-4 4v8c0 2.209 1.789 4 4 4z"/><path d="m60 83.299c-2.211 0-4 1.791-4 4v8c0 2.209 1.789 4 4 4s4-1.791 4-4v-8c0-2.209-1.789-4-4-4z"/><path d="m44 83.299h8c2.211 0 4-1.791 4-4s-1.789-4-4-4h-8c-2.211 0-4 1.791-4 4s1.789 4 4 4z"/><path d="m76 75.299h-8c-2.211 0-4 1.791-4 4s1.789 4 4 4h8c2.211 0 4-1.791 4-4s-1.789-4-4-4z"/><path d="m54 155.299c-7.719 0-14 6.281-14 14s6.281 14 14 14 14-6.281 14-14-6.281-14-14-14zm0 20c-3.308 0-6-2.692-6-6s2.692-6 6-6 6 2.692 6 6-2.692 6-6 6z"/><path d="m84.052 189.69c-2.362 0-4.276 1.915-4.276 4.277s1.915 4.276 4.276 4.276c2.362 0 4.276-1.915 4.276-4.276 0-2.362-1.914-4.277-4.276-4.277z"/><path d="m150.504 181.164h2.086c.577 3.169 1.816 6.106 3.584 8.658l-3.627 3.622c-1.562 1.561-1.562 4.094-.004 5.656.782.783 1.809 1.174 2.832 1.174s2.047-.391 2.828-1.17l3.626-3.621c2.556 1.774 5.498 3.018 8.674 3.598v2.084c0 2.209 1.789 4 4 4s4-1.791 4-4v-2.084c3.177-.579 6.12-1.824 8.676-3.598l3.625 3.622c.781.779 1.804 1.17 2.828 1.17s2.047-.391 2.828-1.172c1.563-1.564 1.563-4.096 0-5.658l-3.624-3.621c1.768-2.552 3.008-5.489 3.585-8.658h2.082c2.211 0 4-1.791 4-4s-1.789-4-4-4h-2.082c-.578-3.169-1.818-6.106-3.585-8.658l3.624-3.622c1.563-1.562 1.563-4.096 0-5.658-1.562-1.562-4.094-1.56-5.656-.002l-3.624 3.622c-2.557-1.774-5.5-3.019-8.677-3.598v-2.084c0-2.209-1.789-4-4-4s-4 1.791-4 4v2.084c-3.176.579-6.118 1.823-8.674 3.597l-3.626-3.621c-1.562-1.558-4.098-1.562-5.66.004-1.558 1.562-1.558 4.096.004 5.656l3.627 3.622c-1.768 2.552-3.007 5.489-3.584 8.658h-2.086c-2.211 0-4 1.791-4 4 0 2.207 1.789 3.998 4 3.998zm24 10.295c-7.883 0-14.293-6.412-14.293-14.295s6.41-14.295 14.293-14.295 14.297 6.412 14.297 14.295-6.414 14.295-14.297 14.295z"/></g></svg>